<svg width="178" height="214" viewBox="0 0 178 214" fill="none" xmlns="http://www.w3.org/2000/svg">
<path fill-rule="evenodd" clip-rule="evenodd" d="M83.621 3.69616C68.6814 17.3568 39.8475 26.9937 8.91754 28.6628L0 29.1444V63.3815C0 99.6285 0.245813 103.082 3.96016 119.017C8.22042 137.293 17.3342 156.177 29.4946 171.929C35.0537 179.129 47.6499 191.035 56.0751 197.051C64.3343 202.948 76.6513 209.598 84.1715 212.219C88.3411 213.672 88.6063 213.675 92.8378 212.331C98.5924 210.502 110.323 204.572 117.059 200.086C142.602 183.077 160.665 159.004 170.697 128.601C176.513 110.974 177.928 97.3961 177.948 58.9906C177.962 32.9899 177.825 29.6471 176.736 29.2277C176.062 28.9678 172.834 28.7538 169.564 28.7515C158.625 28.7453 136.858 24.8158 123.827 20.4957C116.375 18.0252 102.904 10.7506 95.9567 5.44537C92.0097 2.43095 88.5202 -0.0193379 88.2023 0.000115032C87.8843 0.0195679 85.8232 1.68318 83.621 3.69616ZM82.5796 59.7788C76.5916 61.7607 71.0023 66.7095 68.4798 72.2606C67.3492 74.7506 66.7149 78.1875 66.3853 83.6125C65.9247 91.1945 65.8627 91.3991 63.9737 91.5983C59.3699 92.0831 56.4527 93.3732 55.5718 95.3138C54.314 98.0824 54.3133 137.125 55.5703 139.494C57.4848 143.099 57.3755 143.088 88.4892 143.113C117.235 143.138 118.101 143.094 120.088 141.525L122.132 139.913V117.524C122.132 92.1376 122.304 92.8316 115.795 92.0006C110.751 91.3571 110.502 90.9323 110.483 82.934C110.471 77.674 110.088 74.9965 109.01 72.6123C107.069 68.3257 102.401 63.2446 98.6265 61.3125C95.2634 59.5905 85.8612 58.6926 82.5796 59.7788ZM86.4614 69.7683C83.773 70.2787 79.7151 73.5118 78.2875 76.2819C77.4291 77.9478 77.1569 80.3927 77.319 84.996L77.5439 91.3937H88.7877H100.032L100.229 85.1688C100.395 79.9079 100.155 78.4684 98.6777 75.8749C96.104 71.358 91.1474 68.8805 86.4614 69.7683ZM85.4029 110.514C83.0627 112.361 82.578 116.619 84.5228 118.239C85.2176 118.818 85.686 120.519 85.686 122.465C85.686 126.295 87.1236 128.639 89.2266 128.236C90.4053 128.01 90.8108 127.108 91.1218 124.021C91.3389 121.86 92.1244 119.162 92.8665 118.025C94.7555 115.133 94.55 113.028 92.164 110.809C89.6578 108.479 88.0689 108.41 85.4029 110.514Z" fill="#F59020"/>
</svg>
